<svg xmlns="http://www.w3.org/2000/svg" viewBox="0 0 975.8 879.74">
  <path d="M975.66,735.33C760.07,670.88,598.92,571.8,580.51,560.91s-19.53-8.26-31.55-56-35.31-70.62-37.56-91.28-6.76-50.33-15.4-62-25.17-43.58-31.93-73.25-22.16-47.71-31.55-62.36-16.53-65.36-30-70.31-23.67,14.72-25.3,27.9,3.91,72,25.52,110.54c-1.65,7.42,4.15,38.93,4.15,38.93l28.76,120.69s-144.55,55.61-265.73,87.64l-5.71-13" fill="none" stroke="#000" stroke-miterlimit="10"/>
  <path d="M428.53,446.54l9.3,53.44s-92.09,45.25-240.34,76.5l-20.63-46.86" fill="none" stroke="#000" stroke-miterlimit="10"/>
  <path d="M372.69,548.48s17.67,49.69,92.75,68.44" fill="none" stroke="#000" stroke-miterlimit="10"/>
  <path d="M60.25,274.88s-24.09-14.28-35.74,7c-9.62,14.69,27.37,70.55,27.37,70.55" fill="none" stroke="#000" stroke-miterlimit="10"/>
  <path d="M76.92,314.34,16.73,176.17s1.2-20.5,164.69-75.69C283,66.19,351.32,66.19,351.32,66.19l28.05,141.5" fill="none" stroke="#000" stroke-miterlimit="10"/>
  <path d="M70.29,445.93s-5-8.93-10-31.34c-14.86-29.19-13.09-51.18-13.09-51.18l19.69-45.82s25.49-13,33.44,9.36,1.77,51.13-16.48,73.21" fill="none" stroke="#000" stroke-miterlimit="10"/><line x1="108.27" y1="389.57" x2="100.4" y2="370.29" fill="none" stroke="#000" stroke-miterlimit="10"/>
  <path d="M116.55,553.58S64.09,511.51,64.09,502c.75-6.68,6.2-56.05,12.83-71.65,11.34-27.48,49.54-55.69,49.54-55.69s35.64-2.23,25.62,35.64c-7.42,25.77-37.5,55.69-37.5,55.69" fill="none" stroke="#000" stroke-miterlimit="10"/>
  <path d="M718.57,879.34S545.14,754.06,429.52,743.68,255.2,686.39,255.2,686.39s-16.64-1.66-39.93-8.87c-58.79-43.81-96.91-94.82-96.91-94.82s-3.66-58.8-1.81-74.08c10.66-29.36,22.32-57.12,22.32-57.12s12.81-9.9,21.89,0,10.52,26.24.36,69.79c0,0,5.65,37.1,12.53,44.67,0,0,35.47,16.86,37.13,35.8" fill="none" stroke="#000" stroke-miterlimit="10"/>
  <path d="M16.73,176.17H.5V145s31.07-29.1,173.8-73.34,178-37.39,178-37.39l11.25,23.69-12.25,8.25" fill="none" stroke="#000" stroke-miterlimit="10"/>
  <path d="M13.63,135.93,2.59,78s82.71-15.87,114-27.55,141-49,196.07-50c0,0,8.42,11.87,16.84,34.3" fill="none" stroke="#000" stroke-miterlimit="10"/>
  <path d="M352.4,190.26s-91.55,6-212.95,67.69l31.84,86.57s164-56.72,201.4-64.68Z" fill="none" stroke="#000" stroke-miterlimit="10"/>
  <path d="M198.05,286.55s9.31,7.83,18.71-2.9-19.44-6.85-13.37-16.6,17.09-9.77,18.12-8.13,9.06,34.07,13.78,23.23-9.95-26.15,7.79-29.06,13.44,28.94,4,23.49,26.77-14,20.51-31.44l7.87,23.69s15-9.78,8.55-29.14l20.3,19.57-8.14-24.53L322,253.37" fill="none" stroke="#000" stroke-linecap="round" stroke-linejoin="round"/>
</svg>
