<svg xmlns="http://www.w3.org/2000/svg" width="244.435" height="175.122" viewBox="0 0 244.435 175.122">
  <g id="Layer_2" data-name="Layer 2" transform="translate(0.503 0.49)">
    <path id="Path_1" data-name="Path 1" d="M1218.329,447.523s-61.3,2.452-95.627-11.034-76.011-9.808-94.4,8.582,3.429,31.716,3.429,31.716" transform="translate(-974.917 -375.905)" fill="none" stroke="#000" stroke-linecap="round" stroke-miterlimit="10" stroke-width="1"/>
    <path id="Path_2" data-name="Path 2" d="M1184.8,443.57c-15.391,8.181-41.191,7.878-70.615,11.556s-44.136,19.616-67.646,17.164-36.563,20.842-36.563,20.842-2.905,28.074,13.259,47.139,80.915-11.088,98.806-28.5,89.15-67.508,89.15-67.508" transform="translate(-977.438 -372.474)" fill="none" stroke="#000" stroke-linecap="round" stroke-miterlimit="10" stroke-width="1"/>
    <path id="Path_3" data-name="Path 3" d="M1199.528,457.085c-20.842-13.486-98.994-62.413-127.192-69.769s-42.91,11.034-52.718,11.034c-9.884,0-21.2-6.438-30.65,4.9-6.13,7.356-8.582,28.2-.1,53.543s34.092,40.433,34.092,40.433" transform="translate(-983.399 -385.579)" fill="none" stroke="#000" stroke-linecap="round" stroke-miterlimit="10" stroke-width="1"/>
    <path id="Path_4" data-name="Path 4" d="M993.436,462.744S973.173,429,1011.976,427.5s45.668-14.924,60.592-14.924,62.756,26.968,88.688,35.274c6.483,2.076,26.042,1.444,26.4,2.72,1.062,3.83-34.742,8.187-34.742,8.187a7.938,7.938,0,0,0-5.106.318c-12.6,5.153-50.761,20.318-81.777,28.155,0,0-16.6,3.895-29.5-6-10.818,3.923-14.632,9.9-14.632,9.9S1001.6,476.942,993.436,462.744Z" transform="translate(-982.326 -379.478)" opacity="0.05"/>
    <path id="Path_5" data-name="Path 5" d="M1023.322,535.694c16.165,19.064,80.915-11.088,98.806-28.5,9.575-9.32,35.387-28.009,57.314-43.369h0c-6.37.512-12.7,1.335-18.942,2.4-54.151,9.259-102.369,36.921-122.4,40.14-22.345,3.591-28.035-17.812-28.035-17.812S1007.157,516.629,1023.322,535.694Z" transform="translate(-977.419 -367.897)" opacity="0.05"/>
  </g>
</svg>
