<svg xmlns="http://www.w3.org/2000/svg" viewBox="0 0 994.89 714.68"><path d="M672,291.8S587.09,336,561.1,422.36c-16.24,54-30.55,94.86-48.76,126.52-10.92,19-22.6,25-38.24,47.9" fill="none" stroke="#000" stroke-miterlimit="10"/><path d="M746.1,283.54s-20.48,27.57-59.45,21.66-46.9-98.44-46.9-98.44A104.42,104.42,0,0,1,642,185.35c2.5-12.85-17.53-79.38,48.81-107.78s121,9.33,129.35,44.56-23.36,112.76-23.36,112.76L807,253.22" fill="none" stroke="#000" stroke-miterlimit="10"/><line x1="808.23" y1="247.47" x2="937.38" y2="256.73" fill="none" stroke="#000" stroke-miterlimit="10"/><path d="M618.46,421.65s60,170.31,97.63,255.85" fill="none" stroke="#000" stroke-miterlimit="10"/><path d="M643.09,490.06s-17.92,49.56-52.49,95.06c0,0-18.65,37-62.52,80.59" fill="none" stroke="#000" stroke-miterlimit="10"/><path d="M528.93,549.57s42.81,17.4,46.7,26.9" fill="none" stroke="#000" stroke-miterlimit="10"/><path d="M474.1,596.78s12.6-4.78,19.21,8.35c3.58,3.86,6.14,6.42,6.14,6.42s11.06,16.13,13.73,25.57,5.62,17.68,15.75,18,10.26-8.24,8.42-14.25-.93-18.36-5.07-23.34-6.57-15.27-15-22.42-29.14,3.52-29.14,3.52" fill="none" stroke="#000" stroke-miterlimit="10"/><path d="M511.6,671.22c2.06-7.14,8.2-11.6,8.2-11.6s10.1-1.46,8.28,6.09-1.49,17.08-1.49,19.06-2.15,7.39-18.53,14.13-17.71,7.23-23.33,4.6a127.64,127.64,0,0,1-13.08-7.56s-8.9-6.31-11.41-7.7-4.5-6-3.12-11.92" fill="none" stroke="#000" stroke-miterlimit="10"/><path d="M462.85,689.88s-2.17,5.74,11.82,8" fill="none" stroke="#000" stroke-miterlimit="10"/><path d="M487.25,704.53s6.08,7.24,14,5.61,21.21-19.23,21.21-19.23" fill="none" stroke="#000" stroke-miterlimit="10"/><path d="M465.25,694.7s-1.67,7,22,16.08C502.94,719.38,513,709,513,709s8.51-6.74,9.86-8.92c1.46-4,.41-9.8.41-9.8" fill="none" stroke="#000" stroke-miterlimit="10"/><path d="M225,426.5c12.82,23.57,79.59,120.75,79.59,120.75,21.32,44.55,61.31,64,61.31,64L472.7,667.92a145.62,145.62,0,0,0,14.2,8.72c7.1,3.71,15-8.1,20.92-6.68s10.56,4.83,9.5,9.43c0,0-14.6,12.14-20.77,14.5s-26.94-2.95-32.4-5.78-8.43-22.4-8.43-22.4a52.79,52.79,0,0,1-.69-7.16" fill="none" stroke="#000" stroke-miterlimit="10"/><path d="M479.56,600.93s-19.85-16.43-62.12-65-48.9-45.86-48.9-45.86S318,399.12,303.2,353.26,267.3,287,230.11,281.92c0,0-20.27-2.3-30.59-7" fill="none" stroke="#000" stroke-miterlimit="10"/><path d="M525,654.51a23.16,23.16,0,0,1,0,5" fill="none" stroke="#000" stroke-miterlimit="10"/><path d="M948.71,405.77s37,198.13,45.69,248.74" fill="none" stroke="#000" stroke-miterlimit="10"/><line x1="231.15" y1="256.66" x2="215.43" y2="279.56" fill="none" stroke="#000" stroke-miterlimit="10"/><path d="M13.77,549.77S-5.65,452.1,2.49,400.06,44,296.18,76.39,279.56c35.29-18.09,39.15-22.83,39.15-22.83l12.78-55.58S93.24,137,106.79,89.44,157-19.88,240.76,7.05,316,119.83,302.43,156.27c0,0-1.57,26.34-12.17,50.36-20.91,47.39-22.93,52.47-40.95,54.71-8.43,1-19-4.35-22.54-11.25" fill="none" stroke="#000" stroke-miterlimit="10"/></svg>