<svg xmlns="http://www.w3.org/2000/svg" viewBox="0 0 1008.3 941.55"><g data-name="Layer 2"><g id="front"><path d="M758.72,474.89s60.56-10.78,91.88,44.78c35.93,63.76,157.2,57.11,157.2,57.11" fill="none" stroke="#000" stroke-linecap="round" stroke-linejoin="round"/><path d="M874.38,635.71s25.91-34.91,73.36-39.16,60.06-19.77,60.06-19.77" fill="none" stroke="#000" stroke-linecap="round" stroke-linejoin="round"/></g><g id="middle"><path d="M575.69,542.21S684.6,553,715,511.52s43.73-36.63,43.73-36.63" fill="none" stroke="#000" stroke-linecap="round" stroke-linejoin="round"/><path d="M421.44,759.8c29.61-6,67.77,4.55,125.17,46.33,103.41,75.25,196.14,22.58,237.09-72s90.68-98.45,90.68-98.45" fill="none" stroke="#000" stroke-linecap="round" stroke-linejoin="round"/><path d="M285.48,570.83c20.13-9.13,40.76-14.23,65.35-12.29,127.19,10,211.05,109,211.05,109s55.77,73.63,178.82-29.08c38.72-32.32,94-22.55,133.68-2.76" fill="none" stroke="#000" stroke-linecap="round" stroke-linejoin="round"/><path d="M600.48,317.18s121.87,14.26,117.64,83.57,40.6,74.14,40.6,74.14" fill="none" stroke="#000" stroke-linecap="round" stroke-linejoin="round"/></g><g id="back"><path d="M8.38,437s118.19,14.7,148.77,78.81,128.33,55.05,128.33,55.05" fill="none" stroke="#000" stroke-linecap="round" stroke-linejoin="round"/><path d="M8.44,788.33C33,822.7,83,849.91,183.43,797.07c180-94.68,238-37.27,238-37.27" fill="none" stroke="#000" stroke-linecap="round" stroke-linejoin="round"/><path d="M8.44,287s62.15,4.65,97.7,62.09c0,0,50.37,145.27,183.64,74.13S459.24,417,494.05,473.61s81.64,68.6,81.64,68.6" fill="none" stroke="#000" stroke-linecap="round" stroke-linejoin="round"/><path d="M8.38,126.28s47.16,8,98.92,70.4c0,0,53.08,71.29,158.27.9S417,297,600.48,317.18" fill="none" stroke="#000" stroke-linecap="round" stroke-linejoin="round"/><path d="M8.44.5c64.29,16,134.49,14.63,134.49,14.63S418.47,7.64,455.17,152.34,600.48,317.18,600.48,317.18" fill="none" stroke="#000" stroke-linecap="round" stroke-linejoin="round"/><path d="M.5,593.4c141.69,116.89,201,15.56,285-22.57" fill="none" stroke="#000" stroke-linecap="round" stroke-linejoin="round"/><path d="M8.38,941.05s119-10.63,255.08-73.47c78.68-38.33,107.31-97.54,158-107.78" fill="none" stroke="#000" stroke-linecap="round" stroke-linejoin="round"/></g></g></svg>
