<svg xmlns="http://www.w3.org/2000/svg" viewBox="0 0 1008.3 941.55">
  <g data-name="Layer 2">
    <g id="front">
      <path d="M874.38,635.71s25.91-34.91,73.36-39.16,60.06-19.77,60.06-19.77" fill="none" stroke="#000" stroke-linecap="round" stroke-linejoin="round"/>
      <path d="M758.72,474.89s60.56-10.78,91.88,44.78c35.93,63.76,157.2,57.11,157.2,57.11" fill="none" stroke="#000" stroke-linecap="round" stroke-linejoin="round"/></g><g id="middle">
      <path d="M600.48,317.18s121.87,14.26,117.64,83.57,40.6,74.14,40.6,74.14" fill="none" stroke="#000" stroke-linecap="round" stroke-linejoin="round"/>
      <path d="M575.69,542.21S684.6,553,715,511.52s43.73-36.63,43.73-36.63" fill="none" stroke="#000" stroke-linecap="round" stroke-linejoin="round"/>
      <path d="M874.38,635.71c-39.71-19.79-95-29.56-133.68,2.76-123.05,102.71-178.82,29.08-178.82,29.08s-83.86-99-211-109c-24.59-1.94-45.22,3.16-65.35,12.29" fill="none" stroke="#000" stroke-linecap="round" stroke-linejoin="round"/>
      <path d="M874.38,635.71s-49.74,3.9-90.68,98.45S650,881.38,546.61,806.13c-57.4-41.78-95.56-52.31-125.17-46.33" fill="none" stroke="#000" stroke-linecap="round" stroke-linejoin="round"/></g><g id="back">
      <path d="M421.44,759.8c-50.67,10.24-79.3,69.45-158,107.78-136,62.84-255.08,73.47-255.08,73.47" fill="none" stroke="#000" stroke-linecap="round" stroke-linejoin="round"/>
      <path d="M285.48,570.83C201.46,609,142.19,710.29.5,593.4" fill="none" stroke="#000" stroke-linecap="round" stroke-linejoin="round"/>
      <path d="M600.48,317.18S491.86,297,455.17,152.34,142.93,15.13,142.93,15.13,72.73,16.46,8.44.5" fill="none" stroke="#000" stroke-linecap="round" stroke-linejoin="round"/>
      <path d="M8.38,437s118.19,14.7,148.77,78.81,128.33,55.05,128.33,55.05" fill="none" stroke="#000" stroke-linecap="round" stroke-linejoin="round"/>
      <path d="M8.44,788.33C33,822.7,83,849.91,183.43,797.07c180-94.68,238-37.27,238-37.27" fill="none" stroke="#000" stroke-linecap="round" stroke-linejoin="round"/>
      <path d="M8.44,287s62.15,4.65,97.7,62.09c0,0,50.37,145.27,183.64,74.13S459.24,417,494.05,473.61s81.64,68.6,81.64,68.6" fill="none" stroke="#000" stroke-linecap="round" stroke-linejoin="round"/>
      <path d="M8.38,126.28s47.16,8,98.92,70.4c0,0,53.08,71.29,158.27.9S417,297,600.48,317.18" fill="none" stroke="#000" stroke-linecap="round" stroke-linejoin="round"/>
    </g>
  </g>
</svg>
