<svg xmlns="http://www.w3.org/2000/svg" viewBox="0 0 697.98 822.66">
  <path d="M580,281.15s30.19,20.77,73.46,33.21,46,139.79,43.3,189.71-5.57,140.08-5.57,162.75-10.41,155.34-10.41,155.34" fill="none" stroke="#000" stroke-linecap="round" stroke-linejoin="round"/><path d="M611.66,822.16s7-98.43,0-149.32c0,0-2.45-103,.05-138.89" fill="none" stroke="#000" stroke-linecap="round" stroke-linejoin="round"/><path d="M612.66,763.36c-.69-28.68-8.92-31.25-15.17-70.31S605.83,554,614.76,521.16s15.14-54.6,18.67-95.32" fill="none" stroke="#000" stroke-linecap="round" stroke-linejoin="round"/><path d="M357.08,284.73s-52-3.71-80.2,37.13-33.41,116.81-33.41,116.81" fill="none" stroke="#000" stroke-linecap="round" stroke-linejoin="round"/><path d="M285.55,558.26c-3.27-9.35-14.26-35-14.26-35S235.12,428.7,230,394.38,230,354,230,354s17-60.47,19.12-74.31,11.22-34.36,11.22-34.36-17.9-6.68-25.29,7.88-17.42,44.14-17.42,44.14l-7.26-34.76c-1.1-5.21-14-76.54-14-76.54s-3.82-3.82-10.69-1.53-2,25.7-2,25.7l3.82,52.92h-8.91s-15.78-65.9-19.85-75.31S144.2,184.81,146,193s16,74.8,16,74.8-24.68-63.86-28.75-59.28-5.85,8.9-2.8,18.06,12,42,13.74,50.38,2,12.21-.51,13-3.81,2.46-9.41-5.26-24.43-31.38-24.43-31.38-6.61-5.09-10.94-.26,27.23,50.38,27.23,50.38,13.22,43.74,27.71,63.57,27.89,12.54,27.89,12.54" fill="none" stroke="#000" stroke-linecap="round" stroke-linejoin="round"/><path d="M160.34,374.23S191,590.86,210.81,614.82s26.19,28.92,38.71,28.92,35.27-14,50.75-36.35,22.92-119,22.92-119" fill="none" stroke="#000" stroke-linecap="round" stroke-linejoin="round"/><path d="M384.14,164.37S422.09,254,476,242.17c45-9.88,62.59-55.57,63.12-64.74s-3.77-55.57-3.77-55.57" fill="none" stroke="#000" stroke-linecap="round" stroke-linejoin="round"/><path d="M422.09,33.76s38.29,31.37,70.33,38.18,45,48.41,49.78,70.23-2.05,98.86-13,127.5-16.36,47.73-16.36,47.73" fill="none" stroke="#000" stroke-linecap="round" stroke-linejoin="round"/><path d="M573.56,309.9s19.09-97.5-15.68-196.37S487.09-10,422.09,4.21s-81.61,116.15-65,228.76c9.48,63.84-9.64,73.85-9.64,73.85" fill="none" stroke="#000" stroke-linecap="round" stroke-linejoin="round"/><path d="M420.12,220s11,39.24,17.5,53.17" fill="none" stroke="#000" stroke-linecap="round" stroke-linejoin="round"/><path d="M428.87,39s-45,20.45-46.22,82.87a373.53,373.53,0,0,0,1.49,42.51" fill="none" stroke="#000" stroke-linecap="round" stroke-linejoin="round"/><path d="M.5,525.15c136.41,4.4,184.82,158.42,215.62,226s56.12,50.25,64.74,5.21,14.93-78.32,14.93-78.32c10.36-31.68,10.34-83.46,10.34-83.46" fill="none" stroke="#000" stroke-linecap="round" stroke-linejoin="round"/>
</svg>
